<svg width="61" height="60" viewBox="0 0 61 60" fill="none" xmlns="http://www.w3.org/2000/svg">
<path d="M49.2504 18.7492L45.5254 22.4742L38.0254 14.9742L41.7504 11.2492C42.8004 10.1992 44.1504 9.69922 45.5004 9.69922C46.8504 9.69922 48.2004 10.1992 49.2504 11.2492C51.3254 13.3242 51.3254 16.6742 49.2504 18.7492Z" fill="#FCAF17"/>
<path d="M43.7746 24.25L16.7496 51.25C14.6746 53.325 11.3246 53.325 9.24961 51.25C7.17461 49.175 7.17461 45.825 9.24961 43.75L36.2746 16.75L43.7746 24.25Z" fill="#FCAF17"/>
<path d="M25.3753 8.75126L26.4003 5.27626C26.5003 4.95126 26.4003 4.60126 26.1753 4.35126C25.9503 4.10126 25.5503 4.00126 25.2253 4.10126L21.7503 5.12626L18.2753 4.10126C17.9503 4.00126 17.6003 4.10126 17.3503 4.32626C17.1003 4.57626 17.0253 4.92626 17.1253 5.25126L18.1253 8.75126L17.1003 12.2263C17.0003 12.5513 17.1003 12.9013 17.3253 13.1513C17.5753 13.4013 17.9253 13.4763 18.2503 13.3763L21.7503 12.3763L25.2253 13.4013C25.3253 13.4263 25.4003 13.4513 25.5003 13.4513C25.7503 13.4513 25.9753 13.3513 26.1753 13.1763C26.4253 12.9263 26.5003 12.5763 26.4003 12.2513L25.3753 8.75126Z" fill="#FCAF17"/>
<path d="M15.3753 23.7513L16.4003 20.2763C16.5003 19.9513 16.4003 19.6013 16.1753 19.3513C15.9253 19.1013 15.5753 19.0263 15.2503 19.1263L11.7503 20.1263L8.27529 19.1013C7.95029 19.0013 7.60029 19.1013 7.35029 19.3263C7.10029 19.5763 7.02529 19.9263 7.12529 20.2513L8.12529 23.7513L7.10029 27.2263C7.00029 27.5513 7.10029 27.9013 7.32529 28.1513C7.57529 28.4013 7.92529 28.4763 8.25029 28.3763L11.7253 27.3513L15.2003 28.3763C15.2753 28.4013 15.3753 28.4013 15.4753 28.4013C15.7253 28.4013 15.9503 28.3013 16.1503 28.1263C16.4003 27.8763 16.4753 27.5263 16.3753 27.2013L15.3753 23.7513Z" fill="#FCAF17"/>
<path d="M52.8753 36.2499L53.9003 32.7749C54.0003 32.4499 53.9003 32.0999 53.6753 31.8499C53.4253 31.5999 53.0753 31.5249 52.7503 31.6249L49.2753 32.6499L45.8003 31.6249C45.4753 31.5249 45.1253 31.6249 44.8753 31.8499C44.6253 32.0999 44.5503 32.4499 44.6503 32.7749L45.6753 36.2499L44.6503 39.7249C44.5503 40.0499 44.6503 40.3999 44.8753 40.6499C45.1253 40.8999 45.4753 40.9749 45.8003 40.8749L49.2753 39.8499L52.7503 40.8749C52.8253 40.8999 52.9253 40.8999 53.0253 40.8999C53.2753 40.8999 53.5003 40.7999 53.7003 40.6249C53.9503 40.3749 54.0253 40.0249 53.9253 39.6999L52.8753 36.2499Z" fill="#FCAF17"/>
</svg>
