<svg width="61" height="60" viewBox="0 0 61 60" fill="none" xmlns="http://www.w3.org/2000/svg">
<path d="M42.3746 8.9V5C42.3746 3.975 41.5246 3.125 40.4996 3.125C39.4746 3.125 38.6246 3.975 38.6246 5V8.75H22.3746V5C22.3746 3.975 21.5246 3.125 20.4996 3.125C19.4746 3.125 18.6246 3.975 18.6246 5V8.9C11.8746 9.525 8.5996 13.55 8.0996 19.525C8.0496 20.25 8.6496 20.85 9.3496 20.85H51.6496C52.3746 20.85 52.9746 20.225 52.8996 19.525C52.3996 13.55 49.1246 9.525 42.3746 8.9Z" fill="#FCAF17"/>
<path d="M50.5 24.6016H10.5C9.125 24.6016 8 25.7266 8 27.1016V42.5016C8 50.0016 11.75 55.0016 20.5 55.0016H40.5C49.25 55.0016 53 50.0016 53 42.5016V27.1016C53 25.7266 51.875 24.6016 50.5 24.6016ZM23.525 45.5266C23.4 45.6266 23.275 45.7516 23.15 45.8266C23 45.9266 22.85 46.0016 22.7 46.0516C22.55 46.1266 22.4 46.1766 22.25 46.2016C22.075 46.2266 21.925 46.2516 21.75 46.2516C21.425 46.2516 21.1 46.1766 20.8 46.0516C20.475 45.9266 20.225 45.7516 19.975 45.5266C19.525 45.0516 19.25 44.4016 19.25 43.7516C19.25 43.1016 19.525 42.4516 19.975 41.9766C20.225 41.7516 20.475 41.5766 20.8 41.4516C21.25 41.2516 21.75 41.2016 22.25 41.3016C22.4 41.3266 22.55 41.3766 22.7 41.4516C22.85 41.5016 23 41.5766 23.15 41.6766C23.275 41.7766 23.4 41.8766 23.525 41.9766C23.975 42.4516 24.25 43.1016 24.25 43.7516C24.25 44.4016 23.975 45.0516 23.525 45.5266ZM23.525 36.7766C23.05 37.2266 22.4 37.5016 21.75 37.5016C21.1 37.5016 20.45 37.2266 19.975 36.7766C19.525 36.3016 19.25 35.6516 19.25 35.0016C19.25 34.3516 19.525 33.7016 19.975 33.2266C20.675 32.5266 21.775 32.3016 22.7 32.7016C23.025 32.8266 23.3 33.0016 23.525 33.2266C23.975 33.7016 24.25 34.3516 24.25 35.0016C24.25 35.6516 23.975 36.3016 23.525 36.7766ZM32.275 45.5266C31.8 45.9766 31.15 46.2516 30.5 46.2516C29.85 46.2516 29.2 45.9766 28.725 45.5266C28.275 45.0516 28 44.4016 28 43.7516C28 43.1016 28.275 42.4516 28.725 41.9766C29.65 41.0516 31.35 41.0516 32.275 41.9766C32.725 42.4516 33 43.1016 33 43.7516C33 44.4016 32.725 45.0516 32.275 45.5266ZM32.275 36.7766C32.15 36.8766 32.025 36.9766 31.9 37.0766C31.75 37.1766 31.6 37.2516 31.45 37.3016C31.3 37.3766 31.15 37.4266 31 37.4516C30.825 37.4766 30.675 37.5016 30.5 37.5016C29.85 37.5016 29.2 37.2266 28.725 36.7766C28.275 36.3016 28 35.6516 28 35.0016C28 34.3516 28.275 33.7016 28.725 33.2266C28.95 33.0016 29.225 32.8266 29.55 32.7016C30.475 32.3016 31.575 32.5266 32.275 33.2266C32.725 33.7016 33 34.3516 33 35.0016C33 35.6516 32.725 36.3016 32.275 36.7766ZM41.025 45.5266C40.55 45.9766 39.9 46.2516 39.25 46.2516C38.6 46.2516 37.95 45.9766 37.475 45.5266C37.025 45.0516 36.75 44.4016 36.75 43.7516C36.75 43.1016 37.025 42.4516 37.475 41.9766C38.4 41.0516 40.1 41.0516 41.025 41.9766C41.475 42.4516 41.75 43.1016 41.75 43.7516C41.75 44.4016 41.475 45.0516 41.025 45.5266ZM41.025 36.7766C40.9 36.8766 40.775 36.9766 40.65 37.0766C40.5 37.1766 40.35 37.2516 40.2 37.3016C40.05 37.3766 39.9 37.4266 39.75 37.4516C39.575 37.4766 39.4 37.5016 39.25 37.5016C38.6 37.5016 37.95 37.2266 37.475 36.7766C37.025 36.3016 36.75 35.6516 36.75 35.0016C36.75 34.3516 37.025 33.7016 37.475 33.2266C37.725 33.0016 37.975 32.8266 38.3 32.7016C38.75 32.5016 39.25 32.4516 39.75 32.5516C39.9 32.5766 40.05 32.6266 40.2 32.7016C40.35 32.7516 40.5 32.8266 40.65 32.9266C40.775 33.0266 40.9 33.1266 41.025 33.2266C41.475 33.7016 41.75 34.3516 41.75 35.0016C41.75 35.6516 41.475 36.3016 41.025 36.7766Z" fill="#FCAF17"/>
</svg>
