<svg width="61" height="60" viewBox="0 0 61 60" fill="none" xmlns="http://www.w3.org/2000/svg">
<path d="M44.0502 11.0266H13.9752L18.6752 6.32656C19.4002 5.60156 19.4002 4.40156 18.6752 3.67656C17.9502 2.95156 16.7502 2.95156 16.0252 3.67656L8.1252 11.5766C7.9502 11.7516 7.8252 11.9516 7.7252 12.1766C7.6252 12.4016 7.5752 12.6516 7.5752 12.9016C7.5752 13.1516 7.6252 13.4016 7.7252 13.6266C7.8252 13.8516 7.9502 14.0516 8.1252 14.2266L16.0252 22.1266C16.4002 22.5016 16.8752 22.6766 17.3502 22.6766C17.8252 22.6766 18.3002 22.5016 18.6752 22.1266C19.4002 21.4016 19.4002 20.2016 18.6752 19.4766L13.9752 14.7766H44.0502C47.1502 14.7766 49.6752 17.3016 49.6752 20.4016V28.7016C49.6752 29.7266 50.5252 30.5766 51.5502 30.5766C52.5752 30.5766 53.4252 29.7266 53.4252 28.7016V20.4016C53.4252 15.2266 49.2252 11.0266 44.0502 11.0266Z" fill="#FCAF17"/>
<path d="M53.4252 47.1008C53.4252 46.8508 53.3752 46.6008 53.2752 46.3758C53.1752 46.1508 53.0502 45.9508 52.8752 45.7758L44.9752 37.8758C44.2502 37.1508 43.0502 37.1508 42.3252 37.8758C41.6002 38.6008 41.6002 39.8008 42.3252 40.5258L47.0252 45.2258H16.9502C13.8502 45.2258 11.3252 42.7008 11.3252 39.6008V31.3008C11.3252 30.2758 10.4752 29.4258 9.4502 29.4258C8.4252 29.4258 7.5752 30.2758 7.5752 31.3008V39.6008C7.5752 44.7758 11.7752 48.9758 16.9502 48.9758H47.0252L42.3252 53.6758C41.6002 54.4008 41.6002 55.6008 42.3252 56.3258C42.7002 56.7008 43.1752 56.8758 43.6502 56.8758C44.1252 56.8758 44.6002 56.7008 44.9752 56.3258L52.8752 48.4258C53.0502 48.2508 53.1752 48.0508 53.2752 47.8258C53.3752 47.6008 53.4252 47.3508 53.4252 47.1008Z" fill="#FCAF17"/>
</svg>
