<svg width="61" height="60" viewBox="0 0 61 60" fill="none" xmlns="http://www.w3.org/2000/svg">
<path d="M54.25 38.75C54.95 38.75 55.5 39.3 55.5 40V42.5C55.5 46.65 52.15 50 48 50C48 45.875 44.625 42.5 40.5 42.5C36.375 42.5 33 45.875 33 50H28C28 45.875 24.625 42.5 20.5 42.5C16.375 42.5 13 45.875 13 50C8.85 50 5.5 46.65 5.5 42.5V37.5C5.5 36.125 6.625 35 8 35H31.75C35.2 35 38 32.2 38 28.75V15C38 13.625 39.125 12.5 40.5 12.5H42.6C44.4 12.5 46.05 13.475 46.95 15.025L48.55 17.825C48.775 18.225 48.475 18.75 48 18.75C44.55 18.75 41.75 21.55 41.75 25V32.5C41.75 35.95 44.55 38.75 48 38.75H54.25Z" fill="#FCAF17"/>
<path d="M20.5 55C23.2614 55 25.5 52.7614 25.5 50C25.5 47.2386 23.2614 45 20.5 45C17.7386 45 15.5 47.2386 15.5 50C15.5 52.7614 17.7386 55 20.5 55Z" fill="#FCAF17"/>
<path d="M40.5 55C43.2614 55 45.5 52.7614 45.5 50C45.5 47.2386 43.2614 45 40.5 45C37.7386 45 35.5 47.2386 35.5 50C35.5 52.7614 37.7386 55 40.5 55Z" fill="#FCAF17"/>
<path d="M55.5 31.325V35H48C46.625 35 45.5 33.875 45.5 32.5V25C45.5 23.625 46.625 22.5 48 22.5H51.225L54.85 28.85C55.275 29.6 55.5 30.45 55.5 31.325Z" fill="#FCAF17"/>
<path d="M33.2 5H14.725C10.25 5 6.5 8.2 5.675 12.45H16.6C17.55 12.45 18.3 13.225 18.3 14.175C18.3 15.125 17.55 15.875 16.6 15.875H5.5V19.325H12C12.95 19.325 13.725 20.1 13.725 21.05C13.725 22 12.95 22.75 12 22.75H5.5V26.2H7.425C8.375 26.2 9.15 26.975 9.15 27.925C9.15 28.875 8.375 29.625 7.425 29.625H5.5V30.2C5.5 31.575 6.625 32.7 8 32.7H30.875C33.425 32.7 35.5 30.625 35.5 28.075V7.3C35.5 6.025 34.475 5 33.2 5Z" fill="#FCAF17"/>
<path d="M5.675 12.4492H5.3H2.85C1.9 12.4492 1.125 13.2242 1.125 14.1742C1.125 15.1242 1.9 15.8742 2.85 15.8742H5.125H5.5V14.2242C5.5 13.6242 5.575 13.0242 5.675 12.4492Z" fill="#FCAF17"/>
<path d="M5.125 19.3242H2.85C1.9 19.3242 1.125 20.0992 1.125 21.0492C1.125 21.9992 1.9 22.7492 2.85 22.7492H5.125H5.5V19.3242H5.125Z" fill="#FCAF17"/>
<path d="M5.125 26.1992H2.85C1.9 26.1992 1.125 26.9742 1.125 27.9242C1.125 28.8742 1.9 29.6242 2.85 29.6242H5.125H5.5V26.1992H5.125Z" fill="#FCAF17"/>
</svg>
